<svg width="626" height="809" viewBox="0 0 626 809" fill="none" xmlns="http://www.w3.org/2000/svg">
<path d="M501.977 521.389L109.38 584.868C87.4064 588.287 66.4093 566.313 60.5497 532.62L3.9064 208.874C-2.92986 168.345 13.6725 127.327 40.0409 120.003L554.225 -22.5819C586.942 -31.3714 614.287 15.0175 606.474 65.3129L541.041 467.675C536.646 496.974 521.02 518.459 501.977 521.389Z" stroke="#46D36D" stroke-miterlimit="10"/>
<path d="M358.903 269.424L709.506 212.781C745.152 206.921 777.868 242.567 787.146 296.281L829.629 539.945C840.86 604.889 814.003 670.81 772.009 682.529L328.629 805.094C276.38 819.254 232.433 745.032 245.129 664.462L295.912 354.877C303.237 308.488 328.629 274.307 358.903 269.424Z" stroke="#46D36D" stroke-miterlimit="10"/>
</svg>
