<svg width="137" height="36" viewBox="0 0 137 36" fill="none" xmlns="http://www.w3.org/2000/svg">
<g clip-path="url(#clip0_409_124)">
<path d="M4.80181 26.749C3.65339 26.749 2.66641 25.654 2.38389 24.0153L0.0760308 10.4703C-0.290878 8.41152 0.589706 6.40901 2.00597 6.01151L23.0445 0.0715126C23.3651 -0.0169922 23.7027 -0.0189452 24.0243 0.0658478C24.3458 0.150641 24.6404 0.31928 24.8791 0.555266C25.7743 1.37277 26.2109 2.94777 25.9798 4.47027L23.3124 21.2965C23.0702 22.7965 22.23 23.8915 21.1696 24.0678L5.11002 26.7265C5.00796 26.7417 4.90495 26.7492 4.80181 26.749V26.749ZM23.5435 1.29402C23.489 1.29483 23.4348 1.30238 23.3821 1.31652L2.34353 7.25651C1.66842 7.44776 1.07403 8.79401 1.32352 10.2565L3.63138 23.8053C3.80749 24.8215 4.3652 25.5453 4.90088 25.459L20.9605 22.8003C21.3787 22.7328 21.8924 22.1253 22.0612 21.1015L24.7286 4.27526C24.9231 3.06026 24.5305 1.97652 24.0462 1.53027C23.9152 1.3875 23.7348 1.30272 23.5435 1.29402V1.29402Z" fill="#46D36D"/>
<path d="M80.6283 15.045V22.8112H78.1627V15.5175C78.1627 13.1363 77.5316 11.97 75.0953 11.97C72.116 11.97 70.3255 14.1525 70.3255 17.3775V22.8112H67.8599V15.5175C67.8599 13.1363 67.2288 11.97 64.7889 11.97C61.8132 11.97 60.0374 14.1525 60.0374 17.3775V22.8112H57.5718V10.4813H60.0374V12.5775L59.6448 13.9687H60.3383C60.94 11.7187 62.503 10.2188 65.6915 10.2188C68.3992 10.2188 69.8449 11.7562 70.1751 13.9687H70.6264C71.2281 11.7187 72.7911 10.2188 75.9832 10.2188C79.124 10.2337 80.6283 12.2925 80.6283 15.045Z" fill="#5E5E5E"/>
<path d="M98.7495 11.9438C98.7495 10.7776 99.4099 10.2076 100.826 10.2563L109.129 10.4813V12.2026L101.215 11.9813V22.7963H98.7495V11.9438Z" fill="#5E5E5E"/>
<path d="M54.9666 13.83V11.67C54.9666 11.3296 54.8345 11.003 54.5993 10.7618C54.3641 10.5207 54.0449 10.3848 53.7118 10.3838H44.1721C43.7245 10.3838 43.2952 10.5655 42.9787 10.889C42.6622 11.2125 42.4844 11.6513 42.4844 12.1088V18.9975C42.4844 20.003 42.8752 20.9674 43.5708 21.6784C44.2665 22.3894 45.21 22.7888 46.1938 22.7888H54.9666V21.0675H47.8779C44.8436 21.0675 44.1685 20.7225 44.1685 17.2763H51.5837C52.0276 17.2783 52.4674 17.1906 52.878 17.0182C53.2886 16.8459 53.6618 16.5923 53.9762 16.272C54.2906 15.9517 54.5399 15.5711 54.7099 15.1521C54.8798 14.733 54.9671 14.2837 54.9666 13.83ZM45.8636 12.1088H53.2825C53.2825 15.555 53.2825 15.555 49.9106 15.555H44.1685V13.83C44.1685 12.4538 44.1685 12.1088 45.8526 12.1088H45.8636Z" fill="#5E5E5E"/>
<path d="M95.7522 13.8299V11.8799C95.7522 11.4821 95.5976 11.1005 95.3224 10.8192C95.0471 10.5379 94.6738 10.3799 94.2846 10.3799H84.9615C84.74 10.3799 84.5207 10.4245 84.3161 10.5113C84.1116 10.598 83.9257 10.7251 83.7693 10.8853C83.6129 11.0456 83.4889 11.2358 83.4045 11.445C83.3201 11.6543 83.2769 11.8785 83.2773 12.1049V18.9936C83.2769 19.4916 83.3725 19.9849 83.5587 20.4451C83.745 20.9053 84.0182 21.3234 84.3627 21.6755C84.7073 22.0277 85.1164 22.3069 85.5667 22.4973C86.0169 22.6877 86.4995 22.7854 86.9868 22.7849H95.7522V21.0636H88.6709C85.6366 21.0636 84.9615 20.7186 84.9615 17.2724H92.3913C93.2831 17.2694 94.1374 16.9055 94.7672 16.2604C95.3971 15.6152 95.7513 14.7413 95.7522 13.8299V13.8299ZM86.6492 12.1086H94.0644C94.0644 15.5549 94.0644 15.5549 90.6926 15.5549H84.9615V13.8299C84.9615 12.4536 84.9615 12.1086 86.6492 12.1086Z" fill="#5E5E5E"/>
<path d="M136.996 13.8298V11.6998C136.996 11.3514 136.861 11.0171 136.62 10.7704C136.379 10.5237 136.053 10.3845 135.712 10.3835H126.209C125.761 10.3835 125.332 10.5653 125.015 10.8888C124.699 11.2123 124.521 11.651 124.521 12.1085V18.9973C124.521 20.0028 124.912 20.9671 125.607 21.6781C126.303 22.3891 127.247 22.7885 128.23 22.7885H136.996V21.0673H129.918C126.884 21.0673 126.209 20.7223 126.209 17.276H133.624C134.067 17.2765 134.506 17.1877 134.915 17.0147C135.324 16.8417 135.696 16.5879 136.009 16.2678C136.323 15.9477 136.571 15.5675 136.74 15.1492C136.909 14.7309 136.996 14.2825 136.996 13.8298V13.8298ZM127.893 12.1085H135.319C135.319 15.5548 135.319 15.5548 131.947 15.5548H126.209V13.8298C126.209 12.4535 126.209 12.1085 127.893 12.1085V12.1085Z" fill="#5E5E5E"/>
<path d="M122.034 23.9437C122.034 27.3787 119.399 29.6137 115.327 29.6137C112.241 29.6137 110.623 28.3987 109.962 27.87L111.313 26.37C112.12 27.0187 113.408 27.5925 115.594 27.5925C118.559 27.5925 119.759 26.265 119.759 23.9325V21.8512H119.638C119.128 22.2262 117.752 22.8862 115.653 22.8862C112.3 22.8862 109.456 21.2025 109.456 16.7587C109.456 12.5812 112.002 10.1212 117.392 10.1212C118.966 10.0713 120.536 10.2996 122.034 10.7962V23.9437ZM117.062 11.7675C113.918 11.7675 111.823 13.0725 111.823 16.53C111.823 20.28 113.976 21.2625 116.284 21.2625C117.572 21.2625 118.948 20.805 119.729 19.9912V12.1162C118.862 11.8688 117.963 11.7514 117.062 11.7675V11.7675Z" fill="#5E5E5E"/>
<path d="M13.4652 36C12.7612 35.9883 12.0869 35.7073 11.5757 35.2125C10.2438 33.99 9.59435 31.6162 9.96126 29.3062L12.0123 16.365C12.3792 14.115 13.5863 12.51 15.12 12.24L29.4625 9.86621C31.2787 9.56621 32.9224 11.2537 33.37 13.8825L35.1092 24.0787C35.6302 27.1275 34.3423 30.1875 32.295 30.765L14.1624 35.9025C13.9356 35.9679 13.7009 36.0007 13.4652 36V36ZM29.8697 11.145C29.8009 11.1456 29.7322 11.1519 29.6643 11.1637L15.3401 13.5375C14.3862 13.695 13.5386 14.9437 13.2818 16.5712L11.2271 29.5125C10.8822 31.6875 11.616 33.4912 12.4416 34.2487C12.6188 34.4376 12.842 34.575 13.0883 34.6468C13.3345 34.7187 13.5951 34.7223 13.8432 34.6575L31.9758 29.5387C33.37 29.145 34.28 26.655 33.88 24.3187L32.1409 14.1262C31.8254 12.375 30.8787 11.145 29.8697 11.145V11.145Z" fill="#46D36D"/>
</g>
<defs>
<clipPath id="clip0_409_124">
<rect width="137" height="36" fill="white"/>
</clipPath>
</defs>
</svg>
